<svg xmlns="http://www.w3.org/2000/svg" width="596.385" height="256.626" viewBox="6.773 82.186 596.385 256.626" enable-background="new 6.773 82.186 596.385 256.626"><path fill="#6CEF6C" d="M338.494 195.322c11.344-7.149 24.806-11.924 35.2-20.549 7.899-6.556 18.729-19.912 19.14-30.527-5.444 4.049-11.974 10.265-18.366 12.586 11.202-18.694 2.401-48.396-16.297-59.424-12.598-7.43-32.457-.371-35.2 14.456-2.47 13.345 8.058 19.571 20.036 18.315-4.219-4.885-16.372-7.7-7.169-17.531 7.154-7.64 21.161 2.099 21.714 10.647.875 13.541-11.018 23.684-23.869 23.953-18.379.383-34.729-5.727-44.378-21.711-10.799-17.887-30.438-35.789-53.24-33.8-34.629 3.021-78.518 21.962-83.188 59.326 2.111.348 6.35 1.099 11.873 2.337l.005.001c.766.172 18.076 4.781 20.93 5.711 2.145-5.219 7.941-12.768 14.763-20.559l5.817-9.035 28.952-27.534s21.716 27.701 25.337 56.88c2.771 22.367-.145 43.375-9.257 54.614l.892.504c3.158 4.593 9.273 8.728 14.656 10.275 8.609 2.477 15.924 6.025 24.465 9.112-3.596-4.056-7.069-9.836-7.656-15.252 6.181-.359 13.873 4.394 20.971 5.364 11.573 1.58 22.891.077 33.058.007-6.868-.135-22.839-5.975-29.169-10.527 8.013-2.353 18.736-1.133 27.383-2.155 7.08-.836 42.757-9.324 42.639-19.4-36.914 9.992-28.444 4.709-40.042 3.916zM259.559 256.115s-2.399-16.502-9.854-34.754c-6.58-20.611-62.956-55.871-62.956-55.871-18.838-6.253-35.352-8.633-35.352-8.633s-19.52-1.666-41.845 5.703l.005-.007s-60.741 20.28-61.282 57.478c-9.484 19.729-11.902 36.082-11.902 36.082l-.024 8.875s14.509 13.072 43.128 35.053c28.271 21.713 54.553 22.745 76.437 20.789 27.807-2.48 41.19-6.484 65.488-20.789 32.988-19.421 51.636-41.313 51.636-41.313l-13.479-2.613z"/><path fill="#EFF9AC" d="M151.087 286.998l-114.714-34.271-20.509-5.162s15.041 33.259 54.597 56.002c20.175 11.6 46.403 25.926 80.936 25.926 29.215 0 46.226-9.723 65.339-18.063 47.771-20.849 60.727-61.766 60.727-61.766l-17.902 3.063-108.474 34.271z"/><ellipse cx="151.088" cy="287.229" rx="9.651" ry="4.368"/><circle cx="204.887" cy="247.64" r="13.764"/><circle fill="#fff" cx="200.437" cy="240.325" r="6.023"/><circle cx="93.24" cy="247.64" r="13.764"/><circle fill="#fff" cx="88.79" cy="240.325" r="6.023"/><path fill="#EFF9AC" d="M48.274 220.034l33.577-43.34-6.625-43.431-13.519-27.588s-25.232 27.191-25.335 56.88c-.102 29.689-.431 44.117 11.902 57.479z"/><path fill="#2F842F" d="M67.384 195.367s7.843-34.188 7.843-51.246c0-17.059-13.519-38.446-13.519-38.446s47.335 43.948 47.849 56.88c.513 12.932-42.173 32.812-42.173 32.812z"/><path fill="#EFF9AC" d="M249.705 221.361l-37.201-38.635 6.624-43.431 13.521-27.588s25.23 27.191 25.334 56.88c.101 29.689 4.055 39.412-8.278 52.774z"/><path fill="#2F842F" d="M226.971 201.398s-7.843-40.389-7.843-51.247c0-10.857 13.521-38.446 13.521-38.446s-47.335 43.948-47.85 56.88c-.514 12.935 42.172 32.813 42.172 32.813z"/><ellipse transform="matrix(-.338 -.941 .941 -.338 -76.491 378.304)" fill="#2F842F" cx="94.818" cy="216.057" rx="6.883" ry="10.744"/><ellipse transform="matrix(-.338 .941 -.941 -.338 468.738 102.357)" fill="#2F842F" cx="198.367" cy="216.048" rx="6.884" ry="10.743"/><path fill="#2F842F" d="M42.913 232.637l16.187 13.711h-20.568zM253.36 231.279l-16.495 14.109h20.568c-1.065-4.764-3.789-13.246-4.073-14.109z"/><circle fill="#fff" cx="98.096" cy="252.495" r="4.856"/><circle fill="#fff" cx="209.508" cy="252.495" r="4.856"/><path fill="#2F842F" d="M129.498 157.923c.197 8.15-3.524 14.484 1.483 22.099-7.38-1.46-11.814-13.022-14.254-19.562 3.648-.874 8.356-2.002 12.771-2.537zM164.739 159.426c-.198 8.15 3.531 14.188-1.476 21.803 7.38-1.461 11.411-12.421 14.088-18.616-4.474-1.675-8.288-2.404-12.612-3.187zM324.282 154.06l22.97-5.586 8.847-6.797 5.027-12.204s0-12.667-3.317-16.287c-3.317-3.619-16.236-7.511-16.236-7.511h-8.796s6.773-3.798 16.085-6.033c9.311-2.235 17.393 6.359 19.806 12.065s4.323 8.673 5.127 14.696c.804 6.024-.639 19.164-2.883 25.141l-6.165 10.934s1.163 2.871 7.797 0l12.108-7.973s-9.25 14.2-18.097 18.713c-8.848 4.514-24.128 14.161-24.128 14.161l-15.08 3.017 14.275-18.5-19.428-2.269 17.818-10.528-15.73-5.039z"/><g fill="#4CD64C"><path d="M333.479 303.059l-1.26-8.666h-.402c-2.754 3.526-5.584 6.021-8.488 7.481-2.905 1.461-6.34 2.19-10.303 2.19-5.375 0-9.557-1.377-12.545-4.131-2.99-2.754-4.483-6.565-4.483-11.437 0-5.341 2.226-9.488 6.675-12.444 4.45-2.955 10.891-4.517 19.321-4.686l10.429-.303v-3.627c0-5.207-1.059-9.136-3.174-11.789-2.116-2.653-5.525-3.98-10.229-3.98-5.071 0-10.328 1.411-15.77 4.232l-1.863-4.334c6.012-2.82 11.956-4.231 17.834-4.231 6.012 0 10.506 1.562 13.479 4.687 2.972 3.123 4.458 7.994 4.458 14.609v36.426h-3.679v.003zm-20.153-3.528c5.845 0 10.453-1.672 13.83-5.014 3.375-3.342 5.062-7.984 5.062-13.931v-5.392l-9.571.404c-7.691.369-13.174 1.569-16.449 3.602-3.274 2.033-4.912 5.197-4.912 9.497 0 3.426 1.05 6.088 3.148 7.985 2.099 1.9 5.064 2.849 8.892 2.849zM423.307 303.059v-35.922c0-5.341-1.041-9.236-3.123-11.688-2.082-2.452-5.272-3.678-9.572-3.678-5.609 0-9.758 1.545-12.443 4.635-2.688 3.091-4.029 7.943-4.029 14.56v32.093h-5.09v-37.433c0-9.235-4.23-13.854-12.695-13.854-5.744 0-9.924 1.672-12.545 5.014-2.619 3.342-3.93 8.689-3.93 16.046v30.229h-4.986v-54.765h4.131l1.058 7.507h.303c1.511-2.721 3.66-4.828 6.448-6.322s5.861-2.242 9.22-2.242c8.632 0 14.175 3.24 16.626 9.723h.201c1.78-3.124 4.174-5.523 7.18-7.204 3.006-1.679 6.424-2.519 10.252-2.519 5.979 0 10.463 1.595 13.451 4.785 2.989 3.191 4.484 8.263 4.484 15.215v35.82h-4.941zM487.492 303.059h-40.254v-73.656h40.254v4.736h-35.115v27.859h33.15v4.736h-33.15v31.589h35.115v4.736zM524.773 304.064c-7.826 0-13.955-2.469-18.39-7.405-4.434-4.937-6.649-11.822-6.649-20.656 0-9.067 2.301-16.129 6.902-21.185 4.6-5.055 10.897-7.582 18.893-7.582 4.734 0 9.27.822 13.603 2.468l-1.36 4.435c-4.734-1.578-8.851-2.369-12.342-2.369-6.719 0-11.808 2.074-15.267 6.223-3.46 4.148-5.188 10.119-5.188 17.91 0 7.39 1.729 13.175 5.188 17.355 3.459 4.182 8.296 6.271 14.51 6.271 4.972 0 9.589-.889 13.854-2.67v4.636c-3.493 1.714-8.078 2.569-13.754 2.569zM590.797 254.818c-4.282-5.055-10.186-7.582-17.709-7.582-7.558 0-13.502 2.492-17.835 7.48-4.332 4.987-6.499 11.949-6.499 20.883 0 5.676.975 10.682 2.922 15.014 1.948 4.332 4.753 7.658 8.414 9.976 3.66 2.318 7.893 3.478 12.695 3.478 7.624 0 13.604-2.512 17.936-7.532 4.333-5.021 6.499-11.998 6.499-20.933 0-8.801-2.141-15.728-6.423-20.784z"/></g></svg>
